<?xml version="1.0" encoding="utf-8"?>
<!-- Generator: Adobe Illustrator 16.0.0, SVG Export Plug-In . SVG Version: 6.00 Build 0)  -->
<!DOCTYPE svg PUBLIC "-//W3C//DTD SVG 1.1//EN" "http://www.w3.org/Graphics/SVG/1.1/DTD/svg11.dtd">
<svg version="1.1"
	 id="svg2" xmlns:dc="http://purl.org/dc/elements/1.1/" xmlns:cc="http://creativecommons.org/ns#" xmlns:rdf="http://www.w3.org/1999/02/22-rdf-syntax-ns#" xmlns:svg="http://www.w3.org/2000/svg" xmlns:sodipodi="http://sodipodi.sourceforge.net/DTD/sodipodi-0.dtd" xmlns:inkscape="http://www.inkscape.org/namespaces/inkscape" inkscape:output_extension="org.inkscape.output.svg.inkscape" sodipodi:docname="Seinfeld logo.svg" inkscape:version="0.46" sodipodi:version="0.32"
	 xmlns="http://www.w3.org/2000/svg" xmlns:xlink="http://www.w3.org/1999/xlink" x="0px" y="0px" width="219.689px"
	 height="95.09px" viewBox="0 0 219.689 95.09" enable-background="new 0 0 219.689 95.09" xml:space="preserve">
<path id="path14_1_" d="M111.047,7.915c56.802-9.507,102.724,0.905,102.229,23.178c-0.492,22.273-47.223,48.194-104.023,57.7
	C52.454,98.301,6.53,87.888,7.023,65.616C7.517,43.342,54.247,17.422,111.047,7.915z"/>
<path id="path14" fill="#FCD720" d="M110.438,6.296c56.802-9.507,102.724,0.905,102.229,23.178
	c-0.492,22.273-47.223,48.194-104.023,57.7C51.844,96.681,5.92,86.269,6.414,63.997C6.908,41.722,53.637,15.802,110.438,6.296z"/>
<path fill-rule="evenodd" clip-rule="evenodd" fill="#161413" d="M94.501,7.63h-13.7l6.34,13.16L94.501,7.63z M88.972,74.29h11.96
	l0.32-2.371h-3.22l3.55-26.619c0.74-5.55,1.94-9.95,3.61-13.21c1.66-3.26,3.53-4.89,5.58-4.89c1.661,0,2.69,0.909,3.101,2.699
	c0.42,1.79,0.18,6.021-0.711,12.661l-3.91,29.358h-3.29l-0.31,2.371h11.951l0.318-2.371h-3.229l3.809-28.539
	c1.01-7.59,1.061-12.64,0.131-15.16c-0.93-2.51-2.93-3.77-6.02-3.77c-1.99,0-3.871,0.869-5.661,2.609c-1.78,1.73-3.15,4.05-4.1,6.92
	l1.09-8.18h-8.5l-0.31,2.37h3.22l-5.84,43.749h-3.22L88.972,74.29z M133.892,74.29l0.34-2.5h-4.83l6.051-44.311h7.109l0.33-2.399
	h-7.109l0.92-6.811c0.6-4.37,1.16-7.2,1.67-8.49c0.52-1.289,1.209-1.939,2.07-1.939c0.648,0,1.16,0.68,1.52,2.05
	s0.75,4.69,1.15,9.95c0.09,1.24,1.809,1.35,1.93,0l1.641-12c-0.891-0.69-1.791-1.21-2.711-1.53c-0.92-0.34-1.881-0.5-2.85-0.5
	c-2.92,0-5.301,1.391-7.15,4.16c-1.84,2.771-3.141,6.88-3.881,12.36l-0.379,2.75h-2.98l-0.33,2.399h2.98l-6.051,44.311h-3.719
	l-0.34,2.5H133.892z M168.751,8.17l-0.309,2.37h3.148l-7.84,61.379h-3.139l-0.301,2.371h12.08l0.301-2.371h-3.381l8.141-63.749
	H168.751z M197.192,10.54h3.59l-2.971,23.359c-0.199-3.13-0.82-5.479-1.83-7.029c-1.02-1.551-2.439-2.32-4.27-2.32
	c-3.371,0-6.5,2.46-9.371,7.37c-2.879,4.92-4.789,11.1-5.738,18.551c-0.951,7.479-0.65,13.549,0.908,18.198
	c1.57,4.65,4.061,6.971,7.471,6.971c2.061,0,3.83-0.92,5.34-2.75c1.51-1.82,2.791-4.631,3.85-8.409l-1.25,9.81h8.371l0.32-2.461
	h-3.34l8.1-63.659h-8.871L197.192,10.54z M192.251,27.2c2.25,0,3.631,1.79,4.17,5.399c0.541,3.59,0.291,9.48-0.75,17.68
	c-0.969,7.641-2.229,13.311-3.75,17.011c-1.52,3.699-3.369,5.549-5.539,5.549c-2.221,0-3.631-1.799-4.24-5.41
	c-0.6-3.618-0.42-9.179,0.529-16.688c1.021-8.02,2.311-13.961,3.861-17.79C188.081,29.12,189.991,27.2,192.251,27.2z M22.251,50.74
	c-0.08-1.01-1.22-1.01-1.32,0.07l-2.63,20.378c0.84,1.73,2.26,3.102,4.28,4.08c2.02,1,4.3,1.42,6.83,1.281
	c4.63-0.26,8.73-2.471,12.3-6.65c3.56-4.179,5.73-9.229,6.49-15.13c0.54-4.17,0.2-7.609-1.01-10.319c-1.22-2.71-4.25-5.721-9.1-9.07
	c-0.13-0.09-0.32-0.24-0.62-0.43c-6.33-4.391-9.16-9.181-8.49-14.351c0.43-3.35,1.72-6.18,3.85-8.5c2.14-2.32,4.63-3.55,7.47-3.7
	c4.27-0.239,6.76,5.71,7.49,17.841c0.07,0.88,0.11,1.569,0.15,2.069c0.01,1.32,1.23,1.36,1.31-0.08L51.642,9.7
	c-1.62-1.23-3.29-2.12-5.01-2.681c-1.7-0.56-3.44-0.8-5.19-0.71c-4.5,0.25-8.34,2.13-11.53,5.63s-5.13,7.91-5.82,13.25
	c-0.52,4.07-0.17,7.44,1.07,10.09c1.23,2.631,4.47,5.82,9.71,9.551c3.52,2.529,5.71,4.75,6.6,6.68c0.88,1.93,1.13,4.35,0.76,7.25
	c-0.55,4.27-1.98,7.881-4.28,10.849c-2.32,2.971-4.94,4.531-7.9,4.691c-4.44,0.24-7.03-7.391-7.78-22.899
	C22.251,51.08,22.251,50.87,22.251,50.74z M59.251,43.029c0.87-5.579,2.12-9.89,3.75-12.97c1.62-3.06,3.5-4.6,5.6-4.6
	c1.85,0,3.08,1.149,3.7,3.439c0.62,2.301,0.62,5.78,0.01,10.46c-0.07,0.551-0.15,1.12-0.24,1.74c-0.09,0.61-0.19,1.28-0.3,1.971
	L59.251,43.029z M76.421,56.929c0.35-1.67-1.44-1.959-1.67,0c-1.02,4.7-2.45,8.43-4.27,11.21c-2.09,3.16-4.45,4.75-7.09,4.75
	c-2.73,0-4.54-1.961-5.43-5.871c-0.89-3.898-0.83-9.688,0.17-17.349c0.07-0.54,0.17-1.279,0.31-2.21
	c0.15-0.931,0.24-1.601,0.29-1.97h18.92l0.18-1.381c0.84-6.51,0.49-11.6-1.06-15.229c-1.55-3.64-4.15-5.46-7.79-5.46
	c-3.91,0-7.48,2.43-10.71,7.31c-3.24,4.87-5.35,11.101-6.33,18.661c-0.99,7.619-0.51,13.899,1.45,18.849
	c1.97,4.939,4.92,7.4,8.85,7.4c3.5,0,6.51-1.781,9.03-5.361C73.531,67.069,75.251,62.62,76.421,56.929z M144.491,43.029
	c0.861-5.579,2.111-9.89,3.74-12.97c1.631-3.06,3.5-4.6,5.6-4.6c1.861,0,3.09,1.149,3.711,3.439c0.609,2.301,0.609,5.78,0,10.46
	c-0.07,0.551-0.141,1.12-0.23,1.74c-0.09,0.61-0.199,1.28-0.311,1.971L144.491,43.029z M161.651,56.929
	c0.35-1.67-1.439-1.959-1.67,0c-1.02,4.7-2.439,8.43-4.27,11.21c-2.08,3.16-4.451,4.75-7.09,4.75c-2.73,0-4.541-1.961-5.43-5.871
	c-0.891-3.898-0.83-9.688,0.17-17.349c0.07-0.54,0.18-1.279,0.32-2.21c0.139-0.931,0.238-1.601,0.279-1.97h18.92l0.18-1.381
	c0.85-6.51,0.49-11.6-1.061-15.229c-1.549-3.64-4.139-5.46-7.789-5.46c-3.91,0-7.48,2.43-10.711,7.31
	c-3.229,4.87-5.34,11.101-6.33,18.661c-0.988,7.619-0.51,13.899,1.451,18.849c1.969,4.939,4.92,7.4,8.85,7.4
	c3.51,0,6.52-1.781,9.039-5.361C158.761,67.069,160.481,62.62,161.651,56.929z M80.961,25.8l-0.31,2.37h3.2l-5.67,43.749h-3.19
	l-0.31,2.371h12.02l0.31-2.371h-3.2l5.98-46.119H80.961z"/>
<path fill-rule="evenodd" clip-rule="evenodd" fill="#E30922" d="M94.095,6.819h-13.7l6.35,13.16L94.095,6.819z M88.375,73.48h11.96
	l0.31-2.371h-3.22l3.55-26.61c0.74-5.56,1.94-9.96,3.61-13.22c1.67-3.25,3.53-4.89,5.59-4.89c1.65,0,2.681,0.9,3.09,2.7
	c0.421,1.79,0.181,6.02-0.71,12.66l-3.91,29.36h-3.29l-0.31,2.371h11.96l0.31-2.371h-3.22l3.8-28.54
	c1.021-7.59,1.061-12.64,0.141-15.16c-0.93-2.51-2.94-3.77-6.021-3.77c-1.99,0-3.88,0.88-5.67,2.61c-1.78,1.73-3.15,4.05-4.09,6.92
	l1.09-8.18h-8.51l-0.31,2.37h3.22l-5.83,43.75h-3.23L88.375,73.48z M133.285,73.48l0.34-2.5h-4.83l6.05-44.311h7.11l0.33-2.41h-7.11
	l0.931-6.8c0.59-4.37,1.149-7.2,1.659-8.49c0.53-1.29,1.21-1.94,2.07-1.94c0.649,0,1.16,0.68,1.521,2.05
	c0.359,1.37,0.75,4.69,1.149,9.95c0.09,1.24,1.819,1.35,1.94,0l1.64-12c-0.899-0.69-1.79-1.21-2.72-1.53
	c-0.92-0.34-1.87-0.5-2.851-0.5c-2.92,0-5.3,1.39-7.149,4.16c-1.84,2.77-3.131,6.88-3.881,12.36l-0.379,2.74h-2.98l-0.32,2.41h2.98
	l-6.061,44.311h-3.72l-0.34,2.5H133.285z M168.145,7.359l-0.3,2.37h3.14l-7.83,61.38h-3.149l-0.3,2.371h12.08l0.3-2.371h-3.38
	l8.14-63.75H168.145z M196.595,9.729h3.591l-2.98,23.36c-0.2-3.13-0.811-5.48-1.83-7.03c-1.02-1.54-2.439-2.32-4.27-2.32
	c-3.371,0-6.5,2.46-9.371,7.37c-2.879,4.92-4.789,11.1-5.739,18.551c-0.95,7.48-0.64,13.55,0.92,18.199
	c1.569,4.65,4.05,6.971,7.46,6.971c2.061,0,3.84-0.92,5.34-2.75c1.51-1.82,2.79-4.63,3.85-8.41l-1.25,9.811h8.381l0.31-2.461h-3.34
	l8.1-63.66h-8.87L196.595,9.729z M191.645,26.389c2.25,0,3.631,1.79,4.18,5.4c0.531,3.59,0.281,9.479-0.76,17.681
	c-0.97,7.639-2.22,13.309-3.75,17.01c-1.52,3.699-3.369,5.56-5.539,5.56c-2.221,0-3.631-1.81-4.24-5.42
	c-0.6-3.62-0.42-9.181,0.529-16.69c1.021-8.02,2.311-13.96,3.86-17.79C187.484,28.309,189.385,26.389,191.645,26.389z
	 M21.645,49.929c-0.08-1.01-1.22-1.01-1.32,0.07l-2.63,20.38c0.84,1.74,2.27,3.101,4.29,4.08c2.02,1,4.29,1.42,6.82,1.28
	c4.64-0.26,8.73-2.471,12.3-6.65c3.56-4.18,5.73-9.23,6.49-15.13c0.54-4.17,0.2-7.611-1.01-10.32c-1.22-2.711-4.25-5.721-9.1-9.071
	c-0.12-0.09-0.32-0.24-0.61-0.43c-6.34-4.39-9.16-9.18-8.49-14.35c0.43-3.35,1.71-6.18,3.85-8.5s4.62-3.55,7.46-3.7
	c4.27-0.24,6.77,5.71,7.5,17.84c0.06,0.88,0.1,1.57,0.14,2.07c0.02,1.32,1.23,1.36,1.31-0.08l2.4-18.53
	c-1.63-1.23-3.29-2.11-5.01-2.68c-1.71-0.56-3.44-0.8-5.2-0.71c-4.49,0.25-8.34,2.13-11.52,5.63c-3.2,3.5-5.13,7.91-5.82,13.25
	c-0.53,4.07-0.17,7.44,1.06,10.09c1.23,2.63,4.47,5.82,9.71,9.54c3.52,2.54,5.71,4.77,6.61,6.691c0.88,1.93,1.13,4.35,0.75,7.25
	c-0.55,4.271-1.98,7.88-4.28,10.85c-2.31,2.97-4.94,4.53-7.9,4.69c-4.44,0.24-7.03-7.391-7.77-22.9
	C21.655,50.269,21.645,50.06,21.645,49.929z M58.655,42.209c0.86-5.57,2.11-9.88,3.74-12.96c1.63-3.06,3.5-4.6,5.6-4.6
	c1.86,0,3.09,1.15,3.71,3.44c0.61,2.3,0.61,5.78,0,10.46c-0.07,0.55-0.14,1.12-0.23,1.74c-0.09,0.61-0.2,1.28-0.31,1.97
	L58.655,42.209z M75.815,56.13c0.35-1.68-1.44-1.97-1.67,0c-1.02,4.69-2.44,8.42-4.27,11.2c-2.08,3.16-4.45,4.75-7.08,4.75
	c-2.74,0-4.54-1.96-5.44-5.87c-0.89-3.899-0.83-9.69,0.17-17.351c0.07-0.539,0.18-1.28,0.32-2.2c0.14-0.95,0.24-1.61,0.28-1.98
	h18.92l0.18-1.38c0.85-6.51,0.49-11.6-1.06-15.23c-1.55-3.65-4.14-5.46-7.79-5.46c-3.91,0-7.48,2.43-10.71,7.31
	c-3.23,4.87-5.34,11.1-6.33,18.661c-0.99,7.62-0.51,13.9,1.45,18.85c1.97,4.94,4.92,7.4,8.85,7.4c3.51,0,6.52-1.78,9.04-5.359
	C72.925,66.26,74.645,61.81,75.815,56.13z M143.885,42.209c0.87-5.57,2.11-9.88,3.74-12.96c1.63-3.06,3.5-4.6,5.609-4.6
	c1.851,0,3.08,1.15,3.701,3.44c0.619,2.3,0.609,5.78,0.01,10.46c-0.08,0.55-0.15,1.12-0.24,1.74c-0.09,0.61-0.2,1.28-0.311,1.97
	L143.885,42.209z M161.045,56.13c0.359-1.68-1.43-1.97-1.67,0c-1.02,4.69-2.439,8.42-4.27,11.2c-2.08,3.16-4.44,4.75-7.08,4.75
	c-2.73,0-4.541-1.96-5.431-5.87c-0.89-3.899-0.84-9.69,0.16-17.351c0.069-0.539,0.181-1.28,0.319-2.2
	c0.141-0.95,0.24-1.61,0.291-1.98h18.91l0.18-1.38c0.85-6.51,0.49-11.6-1.061-15.23c-1.55-3.65-4.14-5.46-7.789-5.46
	c-3.9,0-7.471,2.43-10.711,7.31c-3.229,4.87-5.34,11.1-6.33,18.661c-0.99,7.62-0.51,13.9,1.461,18.85c1.959,4.94,4.91,7.4,8.84,7.4
	c3.51,0,6.52-1.78,9.039-5.359C158.165,66.26,159.875,61.81,161.045,56.13z M80.355,24.99l-0.3,2.37h3.19l-5.67,43.75h-3.19
	l-0.31,2.371h12.02l0.31-2.371h-3.19l5.97-46.12H80.355z"/>
</svg>
